<svg width="1397" height="442" viewBox="0 0 1397 442" fill="none" xmlns="http://www.w3.org/2000/svg">
<g filter="url(#filter0_d)">
<path d="M1266.35 276H1074.91C1056.34 275.986 1038.5 268.789 1025.11 255.915C1011.73 243.041 1003.84 225.489 1003.11 206.933C1002.37 188.377 1008.84 170.256 1021.17 156.364C1033.49 142.471 1050.71 133.884 1069.22 132.4C1071.86 113.76 1080.28 96.4166 1093.29 82.8099C1106.3 69.2032 1123.25 60.0179 1141.75 56.5463C1160.25 53.0747 1179.38 55.4915 1196.44 63.4567C1213.5 71.4218 1227.63 84.5345 1236.85 100.95C1253.75 95.098 1272.02 94.4142 1289.31 98.9859C1306.61 103.558 1322.15 113.178 1333.95 126.619C1345.76 140.06 1353.29 156.713 1355.59 174.453C1357.9 192.194 1354.86 210.218 1346.88 226.227C1342.19 240.69 1333.04 253.298 1320.75 262.24C1308.45 271.182 1293.64 275.999 1278.44 276H1266.35Z" fill="url(#paint0_linear)"/>
<path d="M1278.44 275C1286.16 275 1293.75 273.767 1301 271.336C1308.01 268.985 1314.59 265.555 1320.56 261.14C1326.46 256.776 1331.63 251.548 1335.93 245.602C1340.29 239.582 1343.65 232.96 1345.93 225.919L1345.95 225.847L1345.98 225.779C1349.01 219.731 1351.34 213.333 1352.91 206.763C1354.53 200.003 1355.35 193.017 1355.35 185.999C1355.35 179.96 1354.74 173.925 1353.54 168.062C1352.37 162.348 1350.62 156.728 1348.35 151.357C1346.12 146.084 1343.36 140.997 1340.15 136.24C1336.96 131.527 1333.31 127.095 1329.28 123.067C1325.25 119.039 1320.82 115.383 1316.11 112.199C1311.35 108.984 1306.26 106.224 1300.99 103.993C1295.62 101.722 1290 99.9769 1284.28 98.8077C1278.42 97.6079 1272.38 96.9995 1266.35 96.9995C1256.35 96.9995 1246.53 98.6451 1237.17 101.891L1236.38 102.165L1235.97 101.436C1228.36 87.8942 1217.28 76.5216 1203.94 68.5478C1197.19 64.5152 1189.94 61.399 1182.39 59.2857C1174.6 57.1055 1166.51 56 1158.35 56C1147.36 56 1136.64 57.977 1126.47 61.876C1116.66 65.6427 1107.65 71.0837 1099.71 78.048C1091.81 84.9722 1085.25 93.1422 1080.22 102.331C1075.07 111.745 1071.7 121.907 1070.21 132.535L1070.1 133.33L1069.3 133.393C1060.34 134.094 1051.72 136.453 1043.68 140.403C1035.87 144.242 1028.89 149.434 1022.95 155.834C1010.73 168.987 1004 186.123 1004 204.087C1004 213.66 1005.87 222.947 1009.57 231.689C1011.35 235.891 1013.55 239.943 1016.11 243.734C1018.65 247.489 1021.56 251.02 1024.77 254.23C1027.98 257.439 1031.51 260.352 1035.27 262.889C1039.06 265.45 1043.11 267.65 1047.31 269.427C1056.05 273.125 1065.34 275 1074.91 275H1266.35H1278.44ZM1278.44 276H1266.35H1074.91C1035.2 276 1003 243.803 1003 204.087C1003 166.286 1032.16 135.297 1069.22 132.396C1075.35 88.6574 1112.92 55 1158.35 55C1192.05 55 1221.42 73.5231 1236.84 100.946C1246.09 97.7406 1256.01 95.9995 1266.35 95.9995C1316.05 95.9995 1356.35 136.294 1356.35 185.999C1356.35 200.459 1352.94 214.121 1346.88 226.227C1337.54 255.109 1310.43 276 1278.44 276Z" fill="white" fill-opacity="0.5"/>
</g>
<path d="M329.418 251H89.9555C66.7258 250.984 44.4034 242.809 27.6615 228.188C10.9196 213.567 1.05614 193.632 0.136083 172.558C-0.783973 151.483 7.31067 130.902 22.7254 115.123C38.1402 99.3449 59.6799 89.592 82.8354 87.9066C86.1375 66.7363 96.6667 47.0387 112.942 31.5849C129.217 16.1311 150.418 5.699 173.564 1.75614C196.709 -2.18672 220.634 0.55814 241.972 9.60455C263.31 18.651 280.987 33.5436 292.516 52.1874C313.663 45.541 336.511 44.7645 358.146 49.9567C379.781 55.149 399.222 66.0748 413.989 81.3405C428.756 96.6061 438.181 115.52 441.06 135.669C443.939 155.817 440.143 176.288 430.156 194.47C424.294 210.897 412.852 225.216 397.472 235.372C382.091 245.528 363.562 250.999 344.544 251H329.418Z" fill="#D1C4F5"/>
<path d="M344.544 249.864C354.2 249.864 363.695 248.464 372.763 245.703C381.532 243.033 389.765 239.137 397.233 234.123C404.614 229.166 411.085 223.229 416.465 216.476C421.913 209.639 426.118 202.117 428.966 194.121L428.995 194.039L429.037 193.962C432.824 187.093 435.74 179.826 437.704 172.364C439.724 164.686 440.749 156.752 440.749 148.782C440.749 141.923 439.988 135.069 438.487 128.41C437.025 121.92 434.842 115.537 432.001 109.437C429.211 103.448 425.757 97.6714 421.736 92.2676C417.753 86.915 413.179 81.8815 408.141 77.3071C403.103 72.7326 397.559 68.5796 391.664 64.9634C385.712 61.3127 379.349 58.1771 372.753 55.6439C366.035 53.0639 359.004 51.0824 351.857 49.7544C344.522 48.3917 336.973 47.7008 329.419 47.7008C316.91 47.7008 304.632 49.5698 292.926 53.2559L291.938 53.567L291.426 52.7396C281.899 37.3595 268.042 24.4431 251.352 15.3869C242.912 10.8069 233.844 7.26764 224.4 4.86745C214.657 2.39126 204.537 1.13575 194.322 1.13575C180.581 1.13575 167.168 3.38112 154.455 7.80944C142.173 12.0874 130.907 18.267 120.969 26.1767C111.087 34.0409 102.887 43.3199 96.5962 53.7558C90.1505 64.4481 85.9376 75.9897 84.0746 88.06L83.9352 88.9635L82.9335 89.0347C71.7276 89.831 60.9463 92.5098 50.8889 96.9964C41.1163 101.356 32.3898 107.253 24.9517 114.522C9.66804 129.46 1.2509 148.923 1.2509 169.325C1.2509 180.198 3.59606 190.745 8.22126 200.674C10.4443 205.446 13.1959 210.048 16.3996 214.354C19.5731 218.619 23.2176 222.63 27.232 226.274C31.2464 229.919 35.6636 233.228 40.3609 236.11C45.103 239.018 50.1724 241.517 55.4282 243.535C66.3634 247.734 77.9801 249.864 89.9556 249.864H329.419H344.544ZM344.544 250.999H329.419H89.9556C40.2747 250.999 0 214.432 0 169.325C0 126.392 36.4821 91.1967 82.8358 87.9024C90.5032 38.2262 137.495 0 194.322 0C236.48 0 273.225 21.0376 292.516 52.1829C304.077 48.5425 316.493 46.565 329.419 46.565C391.595 46.565 442 92.3297 442 148.782C442 165.204 437.735 180.721 430.156 194.47C418.476 227.273 384.561 250.999 344.544 250.999Z" fill="#D1C4F5"/>
<g filter="url(#filter1_f)">
<g filter="url(#filter2_d)">
<path d="M808.385 409.19H277.45C225.945 409.166 176.452 396.914 139.332 375.001C102.212 353.087 80.3431 323.209 78.3031 291.623C76.2632 260.037 94.2106 229.191 128.388 205.543C162.566 181.895 210.323 167.277 261.664 164.751C268.985 133.022 292.33 103.5 328.415 80.3385C364.5 57.1769 411.508 41.5416 462.826 35.6322C514.145 29.7228 567.19 33.8366 614.5 47.3951C661.81 60.9535 701.004 83.2741 726.567 111.217C773.453 101.255 824.112 100.092 872.08 107.874C920.049 115.656 963.153 132.031 995.895 154.91C1028.64 177.79 1049.53 206.137 1055.92 236.335C1062.3 266.534 1053.88 297.215 1031.74 324.465C1018.74 349.085 993.376 370.546 959.273 385.767C925.171 400.989 884.089 409.188 841.922 409.19H808.385Z" fill="url(#paint1_linear)"/>
<path d="M841.922 407.487C863.331 407.487 884.382 405.389 904.488 401.251C923.931 397.249 942.185 391.41 958.742 383.895C975.109 376.466 989.456 367.568 1001.38 357.446C1013.46 347.199 1022.79 335.926 1029.1 323.942L1029.16 323.819L1029.26 323.703C1037.65 313.408 1044.12 302.517 1048.47 291.334C1052.95 279.826 1055.23 267.935 1055.23 255.99C1055.23 245.71 1053.54 235.437 1050.21 225.456C1046.97 215.73 1042.13 206.163 1035.83 197.021C1029.64 188.044 1021.99 179.386 1013.07 171.287C1004.24 163.265 994.099 155.721 982.928 148.865C971.757 142.009 959.466 135.785 946.394 130.365C933.198 124.893 919.092 120.194 904.466 116.397C889.57 112.53 873.983 109.56 858.135 107.57C841.873 105.528 825.135 104.492 808.386 104.492C780.652 104.492 753.429 107.293 727.474 112.818L725.284 113.284L724.148 112.044C703.026 88.9931 672.302 69.6345 635.297 56.0613C616.582 49.197 596.477 43.8925 575.538 40.2952C553.937 36.5839 531.499 34.7022 508.849 34.7022C478.383 34.7022 448.643 38.0675 420.456 44.7045C393.226 51.1162 368.246 60.378 346.211 72.2327C324.303 84.0192 306.121 97.9263 292.173 113.567C277.881 129.593 268.54 146.891 264.41 164.981L264.101 166.335L261.88 166.442C237.034 167.636 213.13 171.65 190.831 178.375C169.163 184.909 149.814 193.746 133.323 204.642C99.4359 227.03 80.7735 256.2 80.7735 286.778C80.7735 303.074 85.9732 318.882 96.2281 333.763C101.157 340.915 107.258 347.813 114.361 354.266C121.397 360.658 129.478 366.669 138.379 372.132C147.279 377.595 157.073 382.554 167.488 386.873C178.002 391.232 189.242 394.977 200.895 398.002C225.14 404.296 250.897 407.487 277.449 407.487H808.386H841.922ZM841.922 409.189H808.386H277.449C167.297 409.189 78 354.383 78 286.778C78 222.432 158.888 169.682 261.663 164.745C278.663 90.2921 382.854 33 508.849 33C602.321 33 683.792 64.5304 726.566 111.21C752.199 105.754 779.727 102.79 808.386 102.79C946.243 102.79 1058 171.381 1058 255.99C1058 280.602 1048.54 303.858 1031.74 324.465C1005.84 373.629 930.647 409.189 841.922 409.189Z" fill="white" fill-opacity="0.5"/>
</g>
</g>
<g filter="url(#filter3_f)">
<g filter="url(#filter4_d)">
<path d="M1075.53 383H734.218C701.108 382.979 669.291 372.297 645.428 353.19C621.565 334.084 607.506 308.034 606.195 280.494C604.884 252.954 616.421 226.059 638.392 205.44C660.364 184.821 691.065 172.077 724.07 169.874C728.776 142.209 743.784 116.469 766.981 96.2744C790.179 76.0799 820.398 62.4475 853.388 57.295C886.379 52.1426 920.48 55.7295 950.893 67.5511C981.307 79.3727 1006.5 98.8341 1022.94 123.197C1053.08 114.512 1085.64 113.497 1116.48 120.282C1147.31 127.067 1175.02 141.343 1196.07 161.291C1217.12 181.239 1230.56 205.954 1234.66 232.283C1238.77 258.613 1233.36 285.363 1219.12 309.123C1210.77 330.591 1194.46 349.304 1172.54 362.577C1150.61 375.85 1124.2 382.999 1097.09 383H1075.53Z" fill="#BEA8FB"/>
<path d="M1097.09 381.515C1110.86 381.515 1124.39 379.686 1137.32 376.078C1149.82 372.588 1161.55 367.497 1172.2 360.944C1182.72 354.467 1191.94 346.707 1199.61 337.882C1207.37 328.946 1213.37 319.117 1217.43 308.666L1217.47 308.559L1217.53 308.458C1222.92 299.483 1227.08 289.988 1229.88 280.237C1232.76 270.204 1234.22 259.837 1234.22 249.425C1234.22 240.462 1233.13 231.505 1230.99 222.802C1228.91 214.322 1225.8 205.981 1221.75 198.01C1217.77 190.183 1212.85 182.634 1207.12 175.573C1201.44 168.578 1194.92 162.001 1187.74 156.023C1180.56 150.045 1172.66 144.618 1164.25 139.892C1155.77 135.122 1146.7 131.024 1137.3 127.714C1127.72 124.342 1117.7 121.753 1107.52 120.018C1097.06 118.237 1086.3 117.334 1075.53 117.334C1057.71 117.334 1040.2 119.777 1023.52 124.594L1022.11 125L1021.38 123.919C1007.8 103.821 988.051 86.9417 964.262 75.1072C952.232 69.1222 939.307 64.4972 925.846 61.3607C911.959 58.1248 897.535 56.4842 882.974 56.4842C863.389 56.4842 844.271 59.4184 826.15 65.2052C808.645 70.7955 792.587 78.8709 778.421 89.207C764.337 99.4837 752.65 111.609 743.682 125.247C734.495 139.219 728.49 154.301 725.835 170.074L725.636 171.255L724.208 171.348C708.236 172.389 692.869 175.889 678.534 181.752C664.605 187.449 652.166 195.155 641.565 204.655C619.78 224.175 607.783 249.608 607.783 276.269C607.783 290.478 611.126 304.261 617.718 317.235C620.887 323.471 624.809 329.486 629.375 335.112C633.898 340.685 639.093 345.926 644.815 350.689C650.537 355.452 656.833 359.776 663.528 363.542C670.287 367.343 677.513 370.607 685.004 373.245C700.59 378.733 717.148 381.515 734.217 381.515H1075.53H1097.09ZM1097.09 382.999H1075.53H734.217C663.405 382.999 606 335.214 606 276.269C606 220.166 657.999 174.173 724.069 169.868C734.998 104.953 801.977 55 882.974 55C943.064 55 995.438 82.4915 1022.94 123.191C1039.41 118.434 1057.11 115.85 1075.53 115.85C1164.16 115.85 1236 175.654 1236 249.425C1236 270.88 1229.92 291.158 1219.12 309.122C1202.48 351.993 1154.14 382.999 1097.09 382.999Z" fill="#BEA8FB"/>
</g>
</g>
<defs>
<filter id="filter0_d" x="983" y="27" width="413.345" height="281" filterUnits="userSpaceOnUse" color-interpolation-filters="sRGB">
<feFlood flood-opacity="0" result="BackgroundImageFix"/>
<feColorMatrix in="SourceAlpha" type="matrix" values="0 0 0 0 0 0 0 0 0 0 0 0 0 0 0 0 0 0 127 0" result="hardAlpha"/>
<feOffset dx="10" dy="2"/>
<feGaussianBlur stdDeviation="15"/>
<feColorMatrix type="matrix" values="0 0 0 0 0.258824 0 0 0 0 0.627451 0 0 0 0 0.941176 0 0 0 0.596 0"/>
<feBlend mode="normal" in2="BackgroundImageFix" result="effect1_dropShadow"/>
<feBlend mode="normal" in="SourceGraphic" in2="effect1_dropShadow" result="shape"/>
</filter>
<filter id="filter1_f" x="74" y="29" width="988" height="384.19" filterUnits="userSpaceOnUse" color-interpolation-filters="sRGB">
<feFlood flood-opacity="0" result="BackgroundImageFix"/>
<feBlend mode="normal" in="SourceGraphic" in2="BackgroundImageFix" result="shape"/>
<feGaussianBlur stdDeviation="2" result="effect1_foregroundBlur"/>
</filter>
<filter id="filter2_d" x="58" y="5" width="1040" height="436.19" filterUnits="userSpaceOnUse" color-interpolation-filters="sRGB">
<feFlood flood-opacity="0" result="BackgroundImageFix"/>
<feColorMatrix in="SourceAlpha" type="matrix" values="0 0 0 0 0 0 0 0 0 0 0 0 0 0 0 0 0 0 127 0" result="hardAlpha"/>
<feOffset dx="10" dy="2"/>
<feGaussianBlur stdDeviation="15"/>
<feColorMatrix type="matrix" values="0 0 0 0 0.258824 0 0 0 0 0.627451 0 0 0 0 0.941176 0 0 0 0.596 0"/>
<feBlend mode="normal" in2="BackgroundImageFix" result="effect1_dropShadow"/>
<feBlend mode="normal" in="SourceGraphic" in2="effect1_dropShadow" result="shape"/>
</filter>
<filter id="filter3_f" x="602" y="51" width="638" height="336" filterUnits="userSpaceOnUse" color-interpolation-filters="sRGB">
<feFlood flood-opacity="0" result="BackgroundImageFix"/>
<feBlend mode="normal" in="SourceGraphic" in2="BackgroundImageFix" result="shape"/>
<feGaussianBlur stdDeviation="2" result="effect1_foregroundBlur"/>
</filter>
<filter id="filter4_d" x="586" y="27" width="690" height="388" filterUnits="userSpaceOnUse" color-interpolation-filters="sRGB">
<feFlood flood-opacity="0" result="BackgroundImageFix"/>
<feColorMatrix in="SourceAlpha" type="matrix" values="0 0 0 0 0 0 0 0 0 0 0 0 0 0 0 0 0 0 127 0" result="hardAlpha"/>
<feOffset dx="10" dy="2"/>
<feGaussianBlur stdDeviation="15"/>
<feColorMatrix type="matrix" values="0 0 0 0 0.501961 0 0 0 0 0.501961 0 0 0 0 0.501961 0 0 0 0.302 0"/>
<feBlend mode="normal" in2="BackgroundImageFix" result="effect1_dropShadow"/>
<feBlend mode="normal" in="SourceGraphic" in2="effect1_dropShadow" result="shape"/>
</filter>
<linearGradient id="paint0_linear" x1="1179.7" y1="55.0024" x2="1282.34" y2="303.166" gradientUnits="userSpaceOnUse">
<stop stop-color="white" stop-opacity="0.604"/>
<stop offset="1" stop-color="white" stop-opacity="0.2"/>
</linearGradient>
<linearGradient id="paint1_linear" x1="568.07" y1="33.0042" x2="686.046" y2="497.75" gradientUnits="userSpaceOnUse">
<stop stop-color="white" stop-opacity="0.604"/>
<stop offset="1" stop-color="white" stop-opacity="0.2"/>
</linearGradient>
</defs>
</svg>
