<svg width="1532" height="525" viewBox="0 0 1532 525" fill="none" xmlns="http://www.w3.org/2000/svg">
<g filter="url(#filter0_i)">
<g filter="url(#filter1_d)">
<path d="M283.345 361H91.913C73.3426 360.986 55.4976 353.789 42.1137 340.915C28.7298 328.041 20.8447 310.489 20.1092 291.933C19.3737 273.377 25.8448 255.256 38.1677 241.364C50.4906 227.471 67.71 218.884 86.221 217.4C88.8608 198.76 97.2781 181.417 110.289 167.81C123.299 154.203 140.248 145.018 158.752 141.546C177.255 138.075 196.381 140.492 213.439 148.457C230.497 156.422 244.628 169.535 253.845 185.95C270.75 180.098 289.015 179.414 306.311 183.986C323.606 188.558 339.148 198.178 350.953 211.619C362.759 225.06 370.293 241.713 372.594 259.453C374.896 277.194 371.861 295.218 363.877 311.227C359.192 325.69 350.045 338.298 337.749 347.24C325.453 356.182 310.641 360.999 295.437 361H283.345Z" fill="url(#paint0_linear)"/>
<path d="M295.437 360C303.156 360 310.746 358.767 317.996 356.336C325.006 353.985 331.587 350.555 337.557 346.14C343.458 341.776 348.631 336.548 352.932 330.602C357.287 324.582 360.649 317.96 362.925 310.919L362.949 310.847L362.983 310.779C366.01 304.731 368.341 298.333 369.911 291.763C371.526 285.003 372.345 278.017 372.345 270.999C372.345 264.96 371.737 258.925 370.537 253.062C369.368 247.348 367.623 241.728 365.352 236.357C363.121 231.084 360.36 225.997 357.146 221.24C353.962 216.527 350.305 212.095 346.278 208.067C342.25 204.039 337.818 200.383 333.105 197.199C328.347 193.984 323.261 191.224 317.988 188.993C312.617 186.722 306.997 184.977 301.283 183.808C295.42 182.608 289.384 182 283.345 182C273.346 182 263.531 183.645 254.172 186.891L253.383 187.165L252.973 186.436C245.357 172.894 234.279 161.522 220.937 153.548C214.189 149.515 206.94 146.399 199.391 144.286C191.602 142.105 183.512 141 175.345 141C164.361 141 153.638 142.977 143.475 146.876C133.657 150.643 124.65 156.084 116.705 163.048C108.806 169.972 102.251 178.142 97.2213 187.331C92.0685 196.745 88.7006 206.907 87.2113 217.535L87.0998 218.33L86.299 218.393C77.3408 219.094 68.7219 221.453 60.6818 225.403C52.8694 229.242 45.8932 234.434 39.947 240.834C27.7289 253.987 21 271.123 21 289.087C21 298.66 22.8748 307.947 26.5723 316.689C28.3495 320.891 30.5491 324.943 33.1102 328.734C35.6472 332.489 38.5607 336.02 41.7699 339.23C44.9791 342.439 48.5104 345.352 52.2655 347.889C56.0565 350.45 60.109 352.65 64.3106 354.427C73.0525 358.125 82.3391 360 91.9127 360H283.345H295.437ZM295.437 361H283.345H91.9127C52.1966 361 20 328.803 20 289.087C20 251.286 49.1646 220.297 86.221 217.396C92.3504 173.657 129.917 140 175.345 140C209.048 140 238.422 158.523 253.845 185.946C263.087 182.741 273.012 181 283.345 181C333.051 181 373.345 221.294 373.345 270.999C373.345 285.459 369.936 299.121 363.877 311.227C354.54 340.109 327.427 361 295.437 361Z" fill="white" fill-opacity="0.5"/>
</g>
<path d="M574.418 251H334.956C311.726 250.984 289.403 242.809 272.661 228.188C255.92 213.567 246.056 193.632 245.136 172.558C244.216 151.483 252.311 130.902 267.725 115.123C283.14 99.3449 304.68 89.592 327.835 87.9066C331.138 66.7363 341.667 47.0387 357.942 31.5849C374.217 16.1311 395.418 5.699 418.564 1.75614C441.709 -2.18672 465.634 0.55814 486.972 9.60455C508.31 18.651 525.987 33.5436 537.516 52.1874C558.663 45.541 581.511 44.7645 603.146 49.9567C624.781 55.149 644.222 66.0748 658.989 81.3405C673.756 96.6061 683.181 115.52 686.06 135.669C688.939 155.817 685.143 176.288 675.156 194.47C669.294 210.897 657.852 225.216 642.472 235.372C627.091 245.528 608.562 250.999 589.544 251H574.418Z" fill="#D1C4F5"/>
<path d="M589.544 249.864C599.2 249.864 608.695 248.464 617.763 245.703C626.532 243.033 634.765 239.137 642.233 234.123C649.614 229.166 656.085 223.229 661.465 216.476C666.913 209.639 671.118 202.117 673.966 194.121L673.995 194.039L674.037 193.962C677.824 187.093 680.74 179.826 682.704 172.364C684.724 164.686 685.749 156.752 685.749 148.782C685.749 141.923 684.988 135.069 683.487 128.41C682.025 121.92 679.842 115.537 677.001 109.437C674.211 103.448 670.757 97.6714 666.736 92.2676C662.753 86.915 658.179 81.8815 653.141 77.3071C648.103 72.7326 642.559 68.5796 636.664 64.9634C630.712 61.3127 624.349 58.1771 617.753 55.6439C611.035 53.0639 604.004 51.0824 596.857 49.7544C589.522 48.3917 581.973 47.7008 574.419 47.7008C561.91 47.7008 549.632 49.5698 537.926 53.2559L536.938 53.567L536.426 52.7396C526.899 37.3595 513.042 24.4431 496.352 15.3869C487.912 10.8069 478.844 7.26764 469.4 4.86745C459.657 2.39126 449.537 1.13575 439.322 1.13575C425.581 1.13575 412.168 3.38112 399.455 7.80944C387.173 12.0874 375.907 18.267 365.969 26.1767C356.087 34.0409 347.887 43.3199 341.596 53.7558C335.151 64.4481 330.938 75.9897 329.075 88.06L328.935 88.9635L327.933 89.0347C316.728 89.831 305.946 92.5098 295.889 96.9964C286.116 101.356 277.39 107.253 269.952 114.522C254.668 129.46 246.251 148.923 246.251 169.325C246.251 180.198 248.596 190.745 253.221 200.674C255.444 205.446 258.196 210.048 261.4 214.354C264.573 218.619 268.218 222.63 272.232 226.274C276.246 229.919 280.664 233.228 285.361 236.11C290.103 239.018 295.172 241.517 300.428 243.535C311.363 247.734 322.98 249.864 334.956 249.864H574.419H589.544ZM589.544 250.999H574.419H334.956C285.275 250.999 245 214.432 245 169.325C245 126.392 281.482 91.1967 327.836 87.9024C335.503 38.2262 382.495 0 439.322 0C481.48 0 518.225 21.0376 537.516 52.1829C549.077 48.5425 561.493 46.565 574.419 46.565C636.595 46.565 687 92.3297 687 148.782C687 165.204 682.735 180.721 675.156 194.47C663.476 227.273 629.561 250.999 589.544 250.999Z" fill="#D1C4F5"/>
<g filter="url(#filter2_d)">
<g filter="url(#filter3_d)">
<path d="M849.385 492.19H318.45C266.945 492.165 217.452 479.914 180.332 458C143.212 436.087 121.343 406.209 119.303 374.623C117.263 343.037 135.211 312.191 169.388 288.543C203.566 264.894 251.323 250.277 302.664 247.751C309.985 216.022 333.33 186.5 369.415 163.338C405.5 140.177 452.508 124.541 503.826 118.632C555.145 112.723 608.19 116.836 655.5 130.395C702.81 143.953 742.004 166.274 767.567 194.216C814.453 184.255 865.112 183.091 913.08 190.873C961.049 198.655 1004.15 215.03 1036.9 237.91C1069.64 260.79 1090.53 289.137 1096.92 319.335C1103.3 349.534 1094.88 380.215 1072.74 407.465C1059.74 432.085 1034.38 453.546 1000.27 468.767C966.171 483.988 925.089 492.188 882.922 492.19H849.385Z" fill="url(#paint1_linear)"/>
<path d="M882.922 490.487C904.331 490.487 925.382 488.389 945.488 484.251C964.931 480.249 983.185 474.41 999.742 466.895C1016.11 459.466 1030.46 450.568 1042.38 440.446C1054.46 430.199 1063.79 418.926 1070.1 406.942L1070.16 406.819L1070.26 406.703C1078.65 396.408 1085.12 385.517 1089.47 374.334C1093.95 362.826 1096.23 350.935 1096.23 338.99C1096.23 328.71 1094.54 318.437 1091.21 308.456C1087.97 298.73 1083.13 289.163 1076.83 280.021C1070.64 271.044 1062.99 262.386 1054.07 254.287C1045.24 246.265 1035.1 238.721 1023.93 231.865C1012.76 225.009 1000.47 218.785 987.394 213.365C974.198 207.893 960.092 203.194 945.466 199.397C930.57 195.53 914.983 192.56 899.135 190.57C882.873 188.528 866.135 187.492 849.386 187.492C821.652 187.492 794.429 190.293 768.474 195.818L766.284 196.284L765.148 195.044C744.026 171.993 713.302 152.634 676.297 139.061C657.582 132.197 637.477 126.892 616.538 123.295C594.937 119.584 572.499 117.702 549.849 117.702C519.383 117.702 489.643 121.067 461.456 127.705C434.226 134.116 409.246 143.378 387.211 155.233C365.303 167.019 347.121 180.926 333.173 196.567C318.881 212.593 309.54 229.891 305.41 247.981L305.101 249.335L302.88 249.442C278.034 250.636 254.13 254.65 231.831 261.375C210.163 267.909 190.814 276.746 174.323 287.642C140.436 310.03 121.773 339.2 121.773 369.778C121.773 386.074 126.973 401.882 137.228 416.763C142.157 423.915 148.258 430.813 155.361 437.266C162.397 443.658 170.478 449.669 179.379 455.132C188.279 460.595 198.073 465.554 208.488 469.873C219.002 474.232 230.242 477.977 241.895 481.002C266.14 487.296 291.897 490.487 318.449 490.487H849.386H882.922ZM882.922 492.189H849.386H318.449C208.297 492.189 119 437.383 119 369.778C119 305.432 199.888 252.682 302.663 247.745C319.663 173.292 423.854 116 549.849 116C643.321 116 724.792 147.53 767.566 194.21C793.199 188.754 820.727 185.79 849.386 185.79C987.243 185.79 1099 254.381 1099 338.99C1099 363.602 1089.54 386.858 1072.74 407.465C1046.84 456.629 971.647 492.189 882.922 492.189Z" fill="white" fill-opacity="0.5"/>
</g>
</g>
<g filter="url(#filter4_f)">
<g filter="url(#filter5_d)">
<path d="M1331.53 415H990.218C957.108 414.979 925.291 404.297 901.428 385.19C877.565 366.083 863.506 340.033 862.195 312.494C860.884 284.954 872.421 258.059 894.392 237.44C916.364 216.821 947.065 204.076 980.07 201.874C984.776 174.209 999.784 148.469 1022.98 128.274C1046.18 108.08 1076.4 94.4472 1109.39 89.2948C1142.38 84.1424 1176.48 87.7293 1206.89 99.5509C1237.31 111.372 1262.5 130.834 1278.94 155.197C1309.08 146.512 1341.64 145.497 1372.48 152.282C1403.31 159.066 1431.02 173.343 1452.07 193.291C1473.12 213.239 1486.56 237.954 1490.66 264.283C1494.77 290.612 1489.36 317.363 1475.12 341.123C1466.77 362.59 1450.46 381.304 1428.54 394.577C1406.61 407.849 1380.2 414.999 1353.09 415H1331.53Z" fill="#BEA8FB"/>
<path d="M1353.09 413.515C1366.86 413.515 1380.39 411.686 1393.32 408.078C1405.82 404.588 1417.55 399.497 1428.2 392.944C1438.72 386.467 1447.94 378.707 1455.61 369.882C1463.37 360.946 1469.37 351.117 1473.43 340.666L1473.47 340.559L1473.53 340.458C1478.92 331.483 1483.08 321.988 1485.88 312.237C1488.76 302.204 1490.22 291.837 1490.22 281.425C1490.22 272.462 1489.13 263.505 1486.99 254.802C1484.91 246.322 1481.8 237.981 1477.75 230.01C1473.77 222.183 1468.85 214.634 1463.12 207.573C1457.44 200.578 1450.92 194.001 1443.74 188.023C1436.56 182.045 1428.66 176.618 1420.25 171.892C1411.77 167.122 1402.7 163.024 1393.3 159.714C1383.72 156.342 1373.7 153.753 1363.52 152.018C1353.06 150.237 1342.3 149.334 1331.53 149.334C1313.71 149.334 1296.2 151.777 1279.52 156.594L1278.11 157L1277.38 155.919C1263.8 135.821 1244.05 118.942 1220.26 107.107C1208.23 101.122 1195.31 96.4972 1181.85 93.3607C1167.96 90.1248 1153.54 88.4842 1138.97 88.4842C1119.39 88.4842 1100.27 91.4184 1082.15 97.2052C1064.65 102.795 1048.59 110.871 1034.42 121.207C1020.34 131.484 1008.65 143.609 999.682 157.247C990.495 171.219 984.49 186.301 981.835 202.074L981.636 203.255L980.208 203.348C964.236 204.389 948.869 207.889 934.534 213.752C920.605 219.449 908.166 227.155 897.565 236.655C875.78 256.175 863.783 281.608 863.783 308.269C863.783 322.478 867.126 336.261 873.718 349.235C876.887 355.471 880.809 361.486 885.375 367.112C889.898 372.685 895.093 377.926 900.815 382.689C906.537 387.452 912.833 391.776 919.528 395.542C926.287 399.343 933.513 402.607 941.004 405.245C956.59 410.733 973.148 413.515 990.217 413.515H1331.53H1353.09ZM1353.09 414.999H1331.53H990.217C919.405 414.999 862 367.214 862 308.269C862 252.166 913.999 206.173 980.069 201.868C990.998 136.953 1057.98 87 1138.97 87C1199.06 87 1251.44 114.491 1278.94 155.191C1295.41 150.434 1313.11 147.85 1331.53 147.85C1420.16 147.85 1492 207.654 1492 281.425C1492 302.88 1485.92 323.158 1475.12 341.122C1458.48 383.993 1410.14 414.999 1353.09 414.999Z" fill="#BEA8FB"/>
</g>
</g>
</g>
<defs>
<filter id="filter0_i" x="20" y="0" width="1472" height="496.19" filterUnits="userSpaceOnUse" color-interpolation-filters="sRGB">
<feFlood flood-opacity="0" result="BackgroundImageFix"/>
<feBlend mode="normal" in="SourceGraphic" in2="BackgroundImageFix" result="shape"/>
<feColorMatrix in="SourceAlpha" type="matrix" values="0 0 0 0 0 0 0 0 0 0 0 0 0 0 0 0 0 0 127 0" result="hardAlpha"/>
<feOffset dy="4"/>
<feGaussianBlur stdDeviation="2"/>
<feComposite in2="hardAlpha" operator="arithmetic" k2="-1" k3="1"/>
<feColorMatrix type="matrix" values="0 0 0 0 0 0 0 0 0 0 0 0 0 0 0 0 0 0 0.25 0"/>
<feBlend mode="normal" in2="shape" result="effect1_innerShadow"/>
</filter>
<filter id="filter1_d" x="0" y="112" width="413.345" height="281" filterUnits="userSpaceOnUse" color-interpolation-filters="sRGB">
<feFlood flood-opacity="0" result="BackgroundImageFix"/>
<feColorMatrix in="SourceAlpha" type="matrix" values="0 0 0 0 0 0 0 0 0 0 0 0 0 0 0 0 0 0 127 0" result="hardAlpha"/>
<feOffset dx="10" dy="2"/>
<feGaussianBlur stdDeviation="15"/>
<feColorMatrix type="matrix" values="0 0 0 0 0.258824 0 0 0 0 0.627451 0 0 0 0 0.941176 0 0 0 0.596 0"/>
<feBlend mode="normal" in2="BackgroundImageFix" result="effect1_dropShadow"/>
<feBlend mode="normal" in="SourceGraphic" in2="effect1_dropShadow" result="shape"/>
</filter>
<filter id="filter2_d" x="115" y="116" width="988" height="384.19" filterUnits="userSpaceOnUse" color-interpolation-filters="sRGB">
<feFlood flood-opacity="0" result="BackgroundImageFix"/>
<feColorMatrix in="SourceAlpha" type="matrix" values="0 0 0 0 0 0 0 0 0 0 0 0 0 0 0 0 0 0 127 0" result="hardAlpha"/>
<feOffset dy="4"/>
<feGaussianBlur stdDeviation="2"/>
<feColorMatrix type="matrix" values="0 0 0 0 0 0 0 0 0 0 0 0 0 0 0 0 0 0 0.25 0"/>
<feBlend mode="normal" in2="BackgroundImageFix" result="effect1_dropShadow"/>
<feBlend mode="normal" in="SourceGraphic" in2="effect1_dropShadow" result="shape"/>
</filter>
<filter id="filter3_d" x="99" y="88" width="1040" height="436.19" filterUnits="userSpaceOnUse" color-interpolation-filters="sRGB">
<feFlood flood-opacity="0" result="BackgroundImageFix"/>
<feColorMatrix in="SourceAlpha" type="matrix" values="0 0 0 0 0 0 0 0 0 0 0 0 0 0 0 0 0 0 127 0" result="hardAlpha"/>
<feOffset dx="10" dy="2"/>
<feGaussianBlur stdDeviation="15"/>
<feColorMatrix type="matrix" values="0 0 0 0 0.258824 0 0 0 0 0.627451 0 0 0 0 0.941176 0 0 0 0.596 0"/>
<feBlend mode="normal" in2="BackgroundImageFix" result="effect1_dropShadow"/>
<feBlend mode="normal" in="SourceGraphic" in2="effect1_dropShadow" result="shape"/>
</filter>
<filter id="filter4_f" x="858" y="83" width="638" height="336" filterUnits="userSpaceOnUse" color-interpolation-filters="sRGB">
<feFlood flood-opacity="0" result="BackgroundImageFix"/>
<feBlend mode="normal" in="SourceGraphic" in2="BackgroundImageFix" result="shape"/>
<feGaussianBlur stdDeviation="2" result="effect1_foregroundBlur"/>
</filter>
<filter id="filter5_d" x="842" y="59" width="690" height="388" filterUnits="userSpaceOnUse" color-interpolation-filters="sRGB">
<feFlood flood-opacity="0" result="BackgroundImageFix"/>
<feColorMatrix in="SourceAlpha" type="matrix" values="0 0 0 0 0 0 0 0 0 0 0 0 0 0 0 0 0 0 127 0" result="hardAlpha"/>
<feOffset dx="10" dy="2"/>
<feGaussianBlur stdDeviation="15"/>
<feColorMatrix type="matrix" values="0 0 0 0 0.501961 0 0 0 0 0.501961 0 0 0 0 0.501961 0 0 0 0.302 0"/>
<feBlend mode="normal" in2="BackgroundImageFix" result="effect1_dropShadow"/>
<feBlend mode="normal" in="SourceGraphic" in2="effect1_dropShadow" result="shape"/>
</filter>
<linearGradient id="paint0_linear" x1="196.698" y1="140.002" x2="299.341" y2="388.166" gradientUnits="userSpaceOnUse">
<stop stop-color="white" stop-opacity="0.604"/>
<stop offset="1" stop-color="white" stop-opacity="0.2"/>
</linearGradient>
<linearGradient id="paint1_linear" x1="609.07" y1="116.004" x2="727.046" y2="580.75" gradientUnits="userSpaceOnUse">
<stop stop-color="#E39696" stop-opacity="0.604"/>
<stop offset="1" stop-color="white" stop-opacity="0.2"/>
</linearGradient>
</defs>
</svg>
