<svg width="435" height="380" viewBox="0 0 435 380" fill="none" xmlns="http://www.w3.org/2000/svg">
<path d="M117.43 241.59C117.541 239.523 117.651 237.492 117.798 235.425C118.277 228.726 118.534 222.027 119.307 215.364C120.116 208.309 121.11 201.253 122.655 194.305C125.414 182.012 129.093 169.932 134.428 158.387C139.1 148.303 144.766 138.753 152.161 130.308C164.044 116.732 178.723 107.289 196.751 103.263C201.717 102.158 206.831 101.588 211.908 101.125C216.029 100.733 220.186 100.59 224.343 100.768C244.394 101.481 262.495 107.432 278.021 120.081C287.917 128.17 295.643 137.898 301.898 148.802C309.587 162.128 314.774 176.382 318.233 191.205C319.704 197.583 320.918 203.997 321.948 210.447C322.647 214.723 322.795 219.105 323.163 223.453C323.42 226.695 323.862 229.938 323.751 233.145C323.567 238.917 323.052 244.654 322.648 250.427C322.648 250.569 322.464 250.748 322.39 250.89C322.169 251.353 321.875 251.817 321.765 252.315C320.698 257.66 318.748 262.649 315.915 267.317C314.075 270.381 311.721 273.018 308.52 274.8C303.48 277.615 298.476 276.724 293.767 274.016C291.008 272.448 288.506 270.453 285.784 268.6C285.673 269.027 285.489 269.562 285.342 270.132C284.717 272.876 284.349 275.726 283.429 278.399C280.522 286.737 273.937 290.158 265.365 287.735C261.171 286.559 257.455 284.314 254.107 281.606C251.421 279.432 248.956 277.009 246.013 274.337C258.669 272.127 263.121 262.792 267.499 253.313C268.051 253.563 268.418 253.705 268.786 253.883C273.827 256.378 279.051 257.945 284.79 256.912C289.095 256.128 292.737 254.382 294.65 250.391C295.533 248.574 295.938 246.543 296.6 244.512C300.72 245.866 304.731 246.187 308.557 243.764C311.61 241.839 315.4 236.566 315.363 234.071C313.229 237.92 310.985 241.447 306.864 243.265C302.486 245.189 298.55 243.55 294.65 241.554C294.356 243.407 294.245 245.046 293.877 246.65C292.59 252.244 287.844 254.525 282.362 254.667C277.138 254.81 272.318 252.957 268.051 249.964C267.499 249.572 266.91 249.18 266.211 248.717C265.77 249.607 265.512 250.32 265.107 250.997C262.679 255.344 260.582 259.941 257.676 263.967C253.224 270.168 246.418 272.021 239.023 270.952C233.247 270.132 229.825 266.177 228.427 260.832C227.507 257.34 227.213 253.67 226.624 249.892C226.22 250.356 225.815 250.748 225.447 251.175C220.223 257.268 213.527 260.511 205.323 260.369C199.767 260.297 196.199 256.805 195.647 251.389C195.573 250.676 195.353 249.964 195.132 249.037C192.52 251.603 189.429 252.707 186.081 252.993C182.476 253.278 178.834 253.313 175.191 253.313C169.857 253.313 164.633 252.28 159.629 250.498C154.037 248.503 150.064 243.514 150.505 237.742C150.615 236.53 150.947 235.319 151.204 234.143C149.916 236.209 149.401 239.737 149.916 241.839C151.241 247.398 155.067 250.712 160.328 252.601C165.258 254.382 170.445 255.024 175.67 255.558C180.784 256.057 185.75 255.736 190.68 254.489C191.526 254.275 192.336 253.955 193.182 253.67C194.874 260.19 199.62 262.863 204.697 263.255C211.504 263.789 217.574 261.794 223.093 257.945C223.35 257.767 223.718 257.732 224.123 257.625C224.932 262.649 226.698 267.068 230.524 270.595C234.461 274.194 239.354 274.693 244.394 274.764C243.658 279.183 237.441 292.082 234.314 295.253C230.892 298.71 227.103 299.351 222.835 297.926C215.44 295.503 209.738 290.87 205.985 284.243C204.513 281.641 203.704 278.72 202.6 275.94C201.276 278.007 200.025 280.18 198.553 282.176C193.955 288.447 186.413 291.12 178.723 289.303C171.402 287.557 166.251 282.817 161.505 277.508C159.813 275.619 158.378 273.517 156.686 271.308C156.392 271.914 156.134 272.27 155.987 272.698C154.81 275.513 152.933 277.651 150.064 278.933C146.421 280.537 142.632 280.644 138.769 279.967C130.859 278.541 124.641 274.586 120.006 268.279C116.106 262.934 114.966 256.841 115.223 250.427C115.701 248.146 116.143 245.83 116.621 243.55C116.584 243.478 116.621 243.407 116.658 243.336C116.768 243.087 116.879 242.801 116.989 242.552C116.989 242.445 116.989 242.338 117.026 242.267C117.21 242.053 117.32 241.804 117.43 241.59ZM306.975 209.948C307.637 208.772 308.262 207.596 308.925 206.42C308.741 206.349 308.557 206.242 308.41 206.171C307.821 207.311 307.232 208.451 306.607 209.591C306.092 210.34 305.65 211.124 305.062 211.801C300.831 216.967 295.938 219.212 289.058 215.685C288.285 215.293 287.439 214.936 286.372 214.473C286.372 215.364 286.409 215.934 286.372 216.504C286.041 224.023 281.884 228.299 273.9 228.406C268.897 228.477 264.298 226.945 260.141 224.201C259.074 223.488 258.007 222.74 256.829 221.956C256.351 222.847 255.983 223.524 255.652 224.237C254.144 227.408 252.709 230.615 251.053 233.715C249.287 237.029 247.043 240.022 243.879 242.338C238.287 246.436 228.501 247.398 222.798 243.051C218.641 239.88 217.022 235.425 216.176 230.615C215.735 228.121 215.587 225.555 215.293 223.025C215.146 222.954 214.999 222.883 214.888 222.811C214.557 223.239 214.263 223.667 213.932 224.094C211.025 227.942 207.162 230.544 202.6 232.183C197.523 233.964 192.409 234.748 187.443 231.933C186.192 231.221 184.941 230.08 184.315 228.833C183.249 226.66 182.697 224.237 181.814 221.635C175.67 227.622 169.084 226.624 162.057 222.883C154.92 219.105 151.462 213.654 152.602 205.636C150.91 209.449 151.498 213.012 153.117 216.504C154.92 220.388 158.378 222.669 161.947 224.7C166.215 227.159 170.703 228.976 175.854 227.693C177.362 227.301 178.76 226.66 180.232 226.125C182.255 233.929 188.473 236.851 195.426 236.601C199.804 236.459 203.962 235.319 207.788 233.252C209.443 232.361 211.025 231.328 212.718 230.366C212.902 231.435 213.049 232.361 213.27 233.252C215.44 242.338 221.621 249.607 232.768 249.144C240.347 248.859 246.455 246.08 250.685 240.093C253.298 236.388 255.211 232.147 257.344 228.121C257.896 227.087 258.154 226.375 259.552 227.194C264.261 230.009 269.449 231.292 274.93 230.864C281.148 230.366 285.894 227.551 287.586 221.386C287.917 220.139 288.101 218.856 288.396 217.431C292.038 218.82 295.717 219.604 299.359 217.823C302.928 216.112 305.43 213.44 306.975 209.948ZM151.462 232.61C151.425 232.61 151.351 232.61 151.314 232.61C151.314 232.789 151.314 232.967 151.314 233.145C151.351 233.145 151.425 233.145 151.462 233.145C151.462 232.967 151.462 232.789 151.462 232.61ZM309.44 204.318C309.44 204.282 309.403 204.211 309.403 204.175C309.366 204.175 309.293 204.211 309.256 204.211C309.256 204.247 309.293 204.318 309.293 204.353C309.329 204.318 309.403 204.318 309.44 204.318ZM308.925 205.209C308.925 205.244 308.888 205.28 308.888 205.351C308.961 205.351 308.998 205.351 309.072 205.387C309.072 205.351 309.072 205.28 309.035 205.244C309.035 205.209 308.961 205.209 308.925 205.209Z" fill="#8AB5DB"/>
<path d="M115.26 250.498C115.003 256.912 116.143 263.005 120.043 268.35C124.642 274.657 130.896 278.613 138.806 280.038C142.669 280.715 146.458 280.644 150.101 279.005C152.97 277.722 154.847 275.584 156.024 272.769C156.208 272.341 156.429 271.985 156.723 271.379C158.415 273.553 159.85 275.655 161.542 277.579C166.288 282.853 171.402 287.628 178.76 289.374C186.413 291.191 193.992 288.519 198.59 282.247C200.062 280.252 201.276 278.078 202.637 276.011C203.741 278.791 204.587 281.713 206.022 284.314C209.738 290.977 215.44 295.574 222.872 297.997C227.177 299.422 230.929 298.745 234.351 295.324C237.515 292.153 243.696 279.29 244.431 274.835C239.391 274.764 234.498 274.265 230.561 270.666C226.735 267.139 225.006 262.72 224.16 257.696C223.755 257.803 223.387 257.839 223.13 258.017C217.648 261.865 211.541 263.861 204.734 263.326C199.657 262.934 194.911 260.262 193.219 253.741C192.373 254.026 191.563 254.347 190.717 254.56C185.787 255.807 180.821 256.128 175.707 255.629C170.483 255.13 165.295 254.489 160.365 252.672C155.104 250.748 151.241 247.469 149.953 241.911C149.438 239.773 149.953 236.281 151.241 234.214C151.02 235.425 150.652 236.601 150.542 237.813C150.101 243.585 154.074 248.574 159.666 250.569C164.67 252.351 169.857 253.384 175.229 253.384C178.871 253.384 182.513 253.349 186.118 253.064C189.466 252.814 192.52 251.674 195.169 249.108C195.39 250.035 195.61 250.748 195.684 251.46C196.199 256.876 199.805 260.368 205.36 260.44C213.564 260.547 220.26 257.34 225.484 251.246C225.852 250.819 226.257 250.391 226.662 249.964C227.25 253.741 227.545 257.411 228.464 260.903C229.862 266.212 233.284 270.168 239.06 271.023C246.455 272.092 253.224 270.239 257.713 264.039C260.619 260.012 262.716 255.415 265.144 251.068C265.512 250.391 265.807 249.679 266.248 248.788C266.947 249.251 267.536 249.607 268.088 250.035C272.355 253.028 277.175 254.881 282.399 254.738C287.918 254.596 292.627 252.315 293.914 246.721C294.282 245.118 294.43 243.478 294.687 241.626C298.587 243.585 302.523 245.26 306.901 243.336C311.022 241.519 313.266 237.991 315.4 234.143C315.437 236.637 311.647 241.911 308.594 243.835C304.768 246.258 300.757 245.937 296.637 244.583C295.975 246.579 295.57 248.645 294.687 250.462C292.737 254.453 289.095 256.199 284.827 256.983C279.051 258.017 273.864 256.449 268.823 253.955C268.455 253.776 268.051 253.634 267.536 253.384C263.158 262.863 258.669 272.199 246.05 274.408C248.993 277.08 251.495 279.503 254.144 281.677C257.492 284.385 261.208 286.63 265.402 287.806C273.974 290.229 280.523 286.844 283.466 278.47C284.386 275.798 284.754 272.983 285.379 270.203C285.489 269.669 285.673 269.134 285.821 268.671C288.506 270.524 291.045 272.519 293.804 274.087C298.513 276.76 303.517 277.686 308.557 274.871C311.758 273.089 314.112 270.453 315.952 267.388C318.785 262.72 320.735 257.696 321.802 252.387C321.912 251.888 322.206 251.425 322.427 250.961C321.912 253.669 321.654 256.413 320.882 259.05C319.594 263.504 317.718 267.709 314.775 271.45C312.31 274.586 309.293 277.009 305.246 277.971C300.537 279.076 296.232 277.936 292.149 275.655C290.603 274.8 289.095 273.802 287.623 272.911C286.74 275.833 286.152 278.648 285.048 281.285C282.841 286.594 278.978 290.193 272.944 291.298C269.154 292.011 265.586 291.191 262.091 289.801C257.749 288.091 253.886 285.597 250.281 282.71C249.177 281.82 247.926 281.107 246.528 280.145C245.756 281.855 245.13 283.245 244.542 284.67C242.555 289.338 240.237 293.828 236.742 297.676C232.953 301.845 227.581 303.271 222.173 301.418C213.233 298.353 206.574 292.723 202.233 284.563C202.086 284.314 201.938 284.064 201.975 284.136C200.43 285.49 198.885 286.951 197.229 288.234C188.951 294.541 178.908 294.719 169.342 288.269C165.258 285.525 161.91 282.105 158.93 278.328C158.378 277.615 157.863 276.938 157.348 276.261C157.091 276.332 156.907 276.296 156.87 276.368C154.221 279.967 150.432 281.57 146.054 282.283C140.645 283.138 135.716 281.677 131.006 279.361C123.096 275.441 117.725 269.419 115.444 261.152C114.487 257.696 114.009 254.097 114.929 250.498C115.039 250.498 115.15 250.498 115.26 250.498Z" fill="#7A93B5"/>
<path d="M115.26 250.498C115.15 250.498 115.039 250.498 114.892 250.498C115.481 248.182 116.069 245.902 116.658 243.585C116.18 245.902 115.738 248.182 115.26 250.498Z" fill="#88A4C4"/>
<path d="M117.43 241.59C117.32 241.84 117.209 242.054 117.099 242.303C117.209 242.054 117.32 241.804 117.43 241.59Z" fill="#88A4C4"/>
<path d="M117.026 242.588C116.916 242.837 116.806 243.122 116.695 243.372C116.806 243.122 116.916 242.837 117.026 242.588Z" fill="#88A4C4"/>
<path d="M306.975 209.948C305.43 213.44 302.928 216.112 299.433 217.823C295.754 219.604 292.075 218.82 288.47 217.431C288.175 218.892 287.991 220.175 287.66 221.386C285.968 227.551 281.222 230.401 275.004 230.864C269.523 231.292 264.335 230.009 259.626 227.194C258.228 226.375 257.97 227.087 257.419 228.121C255.285 232.147 253.372 236.352 250.759 240.093C246.529 246.08 240.458 248.859 232.843 249.144C221.695 249.572 215.514 242.338 213.344 233.252C213.123 232.325 212.976 231.399 212.792 230.366C211.136 231.363 209.554 232.361 207.862 233.252C204.036 235.319 199.878 236.459 195.5 236.601C188.547 236.851 182.329 233.929 180.306 226.125C178.834 226.66 177.436 227.301 175.928 227.693C170.777 228.976 166.289 227.159 162.021 224.7C158.452 222.633 154.994 220.388 153.191 216.504C151.572 213.012 151.021 209.413 152.676 205.636C151.536 213.654 154.994 219.106 162.131 222.883C169.158 226.624 175.781 227.622 181.888 221.635C182.771 224.237 183.323 226.66 184.39 228.833C184.978 230.08 186.266 231.221 187.517 231.933C192.483 234.748 197.597 233.964 202.674 232.183C207.236 230.579 211.099 227.943 214.006 224.094C214.337 223.667 214.631 223.239 214.962 222.811C215.11 222.883 215.257 222.954 215.367 223.025C215.661 225.555 215.845 228.121 216.25 230.615C217.096 235.425 218.715 239.88 222.872 243.051C228.575 247.398 238.398 246.436 243.953 242.338C247.08 240.022 249.361 237.065 251.127 233.715C252.783 230.615 254.181 227.408 255.726 224.237C256.057 223.56 256.425 222.847 256.903 221.956C258.081 222.74 259.111 223.488 260.215 224.201C264.372 226.945 268.971 228.477 273.974 228.406C281.958 228.299 286.078 224.059 286.446 216.504C286.483 215.934 286.446 215.364 286.446 214.473C287.55 214.972 288.359 215.293 289.132 215.685C296.012 219.212 300.868 216.932 305.136 211.801C305.688 211.124 306.166 210.34 306.681 209.591C306.718 209.698 306.865 209.841 306.975 209.948Z" fill="#7993B5"/>
<path d="M306.975 209.948C306.865 209.841 306.718 209.699 306.607 209.592C307.196 208.451 307.785 207.311 308.41 206.171C308.594 206.242 308.778 206.349 308.925 206.42C308.263 207.596 307.638 208.772 306.975 209.948Z" fill="#7D9DC0"/>
<path d="M151.462 232.611C151.462 232.789 151.462 232.967 151.462 233.145C151.425 233.145 151.351 233.145 151.314 233.145C151.314 232.967 151.314 232.789 151.314 232.611C151.388 232.611 151.425 232.611 151.462 232.611Z" fill="#7A93B5"/>
<path d="M309.44 204.318C309.403 204.318 309.366 204.353 309.293 204.353C309.293 204.318 309.256 204.247 309.256 204.211C309.293 204.211 309.366 204.175 309.403 204.175C309.403 204.211 309.403 204.247 309.44 204.318Z" fill="#7D9DC0"/>
<path d="M308.925 205.209C308.962 205.209 309.036 205.209 309.036 205.209C309.073 205.245 309.073 205.28 309.073 205.352C308.999 205.352 308.962 205.352 308.889 205.316C308.889 205.28 308.925 205.245 308.925 205.209Z" fill="#7D9DC0"/>
<path d="M185.323 141.317C185.348 133.811 186.653 128.12 189.877 123.26C195.993 114.063 205.614 114.247 211.602 123.629C217.871 133.473 217.257 149.746 210.297 158.389C204.155 166.018 195.148 165.372 189.801 156.913C186.653 151.899 185.271 146.208 185.323 141.317ZM188.368 140.025C188.368 145.501 189.673 150.545 192.103 154.421C196.761 161.804 204.232 161.896 208.992 154.637C214.084 146.885 214.212 133.904 209.299 126.029C204.437 118.215 196.94 118.154 192.027 125.936C189.391 130.089 188.393 134.888 188.368 140.025Z" fill="#7991B3"/>
<path d="M250.367 140.394C250.341 147.008 248.806 152.976 245.121 158.051C239.441 165.926 230.076 165.711 224.6 157.559C218.356 148.238 218.049 133.688 223.909 124.06C226.519 119.754 229.948 116.985 234.451 116.647C237.906 116.401 240.976 117.877 243.561 120.615C248.038 125.321 250.367 132.181 250.367 140.394ZM247.322 140.671C247.322 135.011 246.222 130.089 243.509 125.813C238.98 118.708 231.867 118.462 227.031 125.229C221.35 133.165 221.401 147.685 227.184 155.529C231.841 161.835 238.596 161.742 243.1 155.283C246.119 150.945 247.271 145.87 247.322 140.671Z" fill="#7991B3"/>
<path d="M188.368 140.025C188.393 134.888 189.417 130.059 192.027 125.906C196.94 118.123 204.437 118.216 209.299 125.998C214.211 133.873 214.084 146.885 208.992 154.606C204.232 161.866 196.735 161.773 192.103 154.391C189.647 150.546 188.342 145.532 188.368 140.025ZM201.827 134.673C202.313 136.795 202.62 139.041 203.388 141.04C204.232 143.225 205.819 143.163 206.944 141.164C208.608 138.21 208.582 131.966 206.919 128.951C205.844 127.013 204.309 126.952 203.439 128.982C202.697 130.705 202.39 132.643 201.827 134.673Z" fill="#242022"/>
<path d="M247.322 140.671C247.271 145.87 246.12 150.945 243.1 155.283C238.597 161.743 231.841 161.835 227.184 155.529C221.402 147.685 221.325 133.165 227.031 125.229C231.893 118.462 238.98 118.708 243.51 125.814C246.222 130.089 247.322 135.011 247.322 140.671ZM235.961 134.857C236.473 136.918 236.754 138.979 237.471 140.764C238.392 143.04 240.183 143.04 241.13 140.764C242.793 136.857 242.793 132.796 241.079 128.89C240.106 126.675 238.418 126.675 237.496 128.92C236.78 130.735 236.473 132.827 235.961 134.857Z" fill="#242022"/>
<path d="M201.827 134.673C202.39 132.612 202.697 130.674 203.414 129.013C204.284 126.952 205.844 127.044 206.894 128.982C208.557 131.996 208.557 138.241 206.919 141.194C205.793 143.163 204.207 143.224 203.362 141.04C202.62 139.041 202.313 136.795 201.827 134.673Z" fill="#FAFAFA"/>
<path d="M235.961 134.857C236.473 132.827 236.78 130.735 237.522 128.89C238.417 126.644 240.132 126.644 241.104 128.859C242.819 132.766 242.819 136.826 241.155 140.733C240.183 143.009 238.392 143.04 237.496 140.733C236.78 138.979 236.473 136.949 235.961 134.857Z" fill="#F2F2F2"/>
<path d="M280.988 275.009C277.976 288.581 270.923 288.581 262.306 288.581C263.221 293.157 257.006 284.083 257.922 288.581C259.37 295.82 260.857 303.058 262.306 310.297C263.107 314.33 264.022 318.388 264.67 322.421C264.899 323.947 264.67 325.498 264.517 327.049C263.526 336.924 262.497 346.774 261.505 356.649C261.391 357.89 261.2 359.131 261.162 360.372C261.124 361.173 260.628 361.561 259.523 361.845C254.986 363.009 251.173 364.922 248.39 367.662C247.437 368.592 246.674 369.678 246.217 370.79C245.111 373.453 247.78 375.392 251.745 374.797C253.613 374.513 255.405 373.918 257.197 373.453C257.388 374.487 257.388 375.65 257.807 376.736C259.142 380.148 263.526 381.053 267.339 378.649C268.94 377.641 270.16 376.374 271.647 375.133C271.914 375.366 272.219 375.753 272.638 376.012C273.973 376.839 275.231 377.822 276.794 378.416C281.026 379.967 284.763 378.494 284.686 375.211C284.61 370.764 281.56 367.3 276.07 364.896C274.697 364.301 274.163 363.81 274.316 362.595C275.612 353.34 276.527 344.085 277.976 334.856C279.806 323.197 279.768 311.486 280.187 299.801C280.492 292.071 284.419 276.486 284.686 268.731C284.686 268.265 280.988 275.63 280.988 275.009Z" fill="#7993B5"/>
<path d="M155.284 267.673C163.352 267.673 159.955 281.246 167.951 281.246C168.801 276.747 167.102 285.821 167.951 281.246C166.607 288.484 178.708 285.227 177.364 292.465C176.621 296.498 171.03 311.053 170.428 315.085C170.216 316.611 170.428 318.162 170.57 319.713C171.49 329.588 172.445 339.438 173.365 349.313C173.471 350.554 173.648 351.795 173.684 353.036C173.719 353.837 174.179 354.225 175.205 354.509C179.416 355.673 182.954 357.586 185.537 360.326C186.422 361.257 187.13 362.342 187.554 363.454C188.581 366.117 186.104 368.056 182.424 367.461C180.69 367.177 179.027 366.582 177.364 366.117C177.187 367.151 177.187 368.314 176.798 369.4C175.559 372.812 171.49 373.717 167.951 371.313C166.465 370.305 165.333 369.038 163.953 367.797C163.705 368.03 163.422 368.418 163.033 368.676C161.795 369.503 160.627 370.486 159.176 371.08C155.249 372.631 151.781 371.158 151.852 367.875C151.922 363.428 154.753 359.964 159.848 357.56C161.122 356.965 161.618 356.474 161.476 355.259C160.273 346.004 159.424 336.749 158.079 327.52C156.381 315.861 156.416 304.15 156.027 292.465C155.744 284.735 155.532 276.98 155.284 269.224C155.284 269.224 155.284 268.294 155.284 267.673Z" fill="#7993B5"/>
<rect width="13.6832" height="24.7819" transform="matrix(0.886439 0.462845 -0.484766 0.874644 312.899 181.287)" fill="#828282"/>
<path d="M305.48 218.485L307.427 214.978L309.33 216.104L315.395 205.166L303.15 198.773L297.09 209.713L298.935 210.676L296.992 214.187L305.48 218.485Z" fill="black"/>
<path d="M306.759 192.111L319.007 198.506L317.146 201.864L304.898 195.469L306.759 192.111Z" fill="black"/>
<path d="M310.304 185.647L322.552 192.042L320.691 195.4L308.443 189.005L310.304 185.647Z" fill="black"/>
<path d="M312.295 178.186L328.14 186.46L326.279 189.817L310.434 181.544L312.295 178.186Z" fill="black"/>
<g filter="url(#filter0_d)">
<path d="M323.609 183.378L364.738 108.904C366.227 106.223 362.936 104.902 362.878 104.74C361.263 103.896 359.361 104.369 358.733 105.769L317.546 180.08L323.609 183.378Z" fill="#56CCF2"/>
</g>
<rect width="15.539" height="26.8369" transform="matrix(0.874936 -0.484238 0.506539 0.862217 117.143 179.418)" fill="#828282"/>
<path d="M148.55 207.069L146.351 203.321L148.613 202.215L141.755 190.536L128.03 198.132L134.893 209.808L136.962 208.664L139.165 212.408L148.55 207.069Z" fill="black"/>
<path d="M123.8 191.096L137.529 183.498L139.635 187.083L125.906 194.681L123.8 191.096Z" fill="black"/>
<path d="M119.723 184.231L133.452 176.632L135.558 180.217L121.829 187.815L119.723 184.231Z" fill="black"/>
<path d="M113.724 178.224L131.485 168.395L133.591 171.979L115.83 181.809L113.724 178.224Z" fill="black"/>
<g filter="url(#filter1_d)">
<path d="M125.714 170.804L78.9155 91.4354C77.2355 88.5701 73.9321 90.8347 73.7387 90.7963C71.9283 91.7983 71.2152 93.8012 72.1847 95.1607L118.79 174.491L125.714 170.804Z" fill="#EB5757"/>
</g>
<path d="M296.99 70.6091C296.91 69.1005 296.022 70.1997 296.022 70.1997C296.022 70.1997 293.739 75.8428 293.078 76.6305C292.423 77.4182 290.687 79.9282 288.17 81.2856C285.66 82.6474 284.044 83.3461 283.363 83.4174C282.669 83.493 282.449 83.4396 283.09 82.0288C283.811 80.4667 285.346 74.9527 285.5 74.4186C285.653 73.8756 287.176 69.354 286.909 67.6761C286.755 66.6926 287.923 61.3565 288.11 60.9561C288.297 60.5555 289.886 53.5328 289.746 52.2021C289.586 50.7735 287.636 47.6404 287.216 46.786C286.795 45.9359 286.381 43.3681 285.613 42.2689C284.839 41.1651 285.159 40.1327 284.331 40.2261C283.503 40.3151 284.331 42.2689 284.318 42.5002C284.305 42.7406 284.592 45.3663 284.638 46.1674C284.699 46.9641 285.526 49.8167 285.9 50.4398C286.268 51.0673 286.648 52.3001 286.348 53.4216C286.047 54.5476 285.794 56.4256 285.219 56.9553C284.632 57.4938 282.909 59.4342 280.746 57.8721C280.092 57.3959 278.109 54.4853 277.201 53.5641C276.34 52.6874 275.338 50.8761 274.177 49.9104C273.015 48.9491 272.033 48.1036 269.436 46.4969C266.833 44.8814 266.626 44.3385 265.737 43.5774C264.836 42.8253 262.867 41.0007 261.945 40.2931C261.344 39.8302 260.329 39.759 261.765 41.2632C263.2 42.7675 265.544 45.9718 266.712 46.982C267.88 47.9922 269.857 50.5334 270.458 51.2677C271.065 52.0154 272.981 54.6011 273.789 55.5579C274.584 56.5147 276.052 58.7221 277.134 60.2708C278.229 61.8107 280.058 64.9304 280.379 67.6896C280.692 70.4534 280.225 72.4383 279.457 74.5166C278.69 76.586 278.85 78.7089 278.236 80.1953C278.236 80.1953 277.855 83.8892 274.51 86.19C273.128 87.1424 271.632 87.9835 270.257 88.6867C270.264 86.4436 270.124 84.5523 270.05 84.2541C270.05 84.2541 269.002 83.9915 268.581 86.0744C268.348 87.2448 268.201 88.6112 267.994 89.786C267.079 90.2088 266.345 90.5159 265.997 90.6672C264.969 91.1078 258.446 93.244 255.969 94.4589C253.499 95.6739 240.12 101.486 239.392 101.989C238.657 102.496 237.716 102.692 237.716 102.692C237.716 102.692 237.649 98.6201 237.736 98.1394C237.836 97.6588 237.829 93.818 237.93 93.3775C238.036 92.9369 238.263 89.786 238.417 89.2475C238.571 88.709 239.672 84.4678 238.571 84.3476C237.476 84.2274 237.576 86.0654 236.628 87.4496C235.686 88.8336 235.292 91.8599 235.019 92.79C234.752 93.7202 234.097 99.479 234.177 99.8038C234.251 100.124 234.024 102.99 233.316 103.591C232.615 104.187 232.141 104.899 232.228 105.558C232.315 106.212 229.531 107.196 229.531 107.196C229.531 107.196 227.534 111.575 233.503 112.278C238.357 112.848 238.878 110.204 238.878 110.204C238.878 110.204 237.028 106.315 244.219 104.873C251.409 103.431 255.182 105.024 261.317 102.639C267.219 100.338 268.909 98.2151 269.736 94.6102C269.777 94.4277 269.817 94.2364 269.85 94.0405C273.442 92.5942 278.917 90.0574 280.632 88.5532C283.023 86.4392 288.598 84.4277 289.071 84.1295C289.559 83.818 293.144 81.6639 294.593 79.0694C296.102 76.4214 297.083 72.1178 296.99 70.6091H296.99ZM251.998 100.565C251.657 100.547 259.122 97.6588 259.122 97.6588C259.122 97.6588 262.981 96.2435 265.364 95.5137C264.81 96.4037 264.189 97.2226 263.521 97.6588C261.859 98.7358 257.573 100.801 251.998 100.565Z" fill="#F2F2F2"/>
<path d="M207.934 105.763C208.027 105.109 207.56 104.393 206.859 103.796C206.151 103.2 205.917 100.329 205.998 100.005C206.084 99.6796 205.423 93.9253 205.15 92.9907C204.883 92.065 204.482 89.0343 203.547 87.6547C202.606 86.2751 202.686 84.437 201.604 84.5527C200.496 84.6729 201.611 88.9141 201.751 89.4526C201.905 89.9956 202.132 93.142 202.239 93.5826C202.346 94.0232 202.332 97.8639 202.432 98.3445C202.526 98.8296 202.452 102.893 202.452 102.893C202.452 102.893 201.511 102.697 200.777 102.194C200.042 101.687 186.669 95.8745 184.199 94.6596C181.729 93.4402 175.206 91.3129 174.171 90.8723C173.824 90.721 173.096 90.4139 172.175 89.9911C171.968 88.8163 171.827 87.4499 171.594 86.2795C171.173 84.1967 170.118 84.4592 170.118 84.4592C170.045 84.753 169.905 86.6444 169.918 88.8918C168.543 88.1887 167.04 87.3431 165.665 86.3951C162.313 84.0899 161.939 80.4005 161.939 80.4005C161.332 78.9096 161.492 76.7912 160.718 74.7173C159.943 72.6434 159.476 70.6541 159.796 67.8948C160.117 65.1311 161.946 62.0113 163.034 60.4671C164.116 58.9227 165.585 56.7153 166.386 55.7586C167.194 54.8062 169.103 52.216 169.711 51.4728C170.318 50.7296 172.288 48.1973 173.456 47.1871C174.618 46.1769 176.968 42.9726 178.41 41.4684C179.846 39.9597 178.824 40.0309 178.223 40.4937C177.308 41.2013 175.326 43.0216 174.431 43.7826C173.536 44.5391 173.336 45.0821 170.732 46.702C168.135 48.3131 167.147 49.1542 165.992 50.1199C164.83 51.0857 163.829 52.8926 162.967 53.7737C162.066 54.6905 160.083 57.6055 159.422 58.0772C157.266 59.6437 155.537 57.7034 154.956 57.1649C154.368 56.6264 154.114 54.7572 153.827 53.6267C153.527 52.5052 153.907 51.268 154.268 50.6405C154.642 50.0175 155.47 47.1692 155.53 46.3726C155.583 45.5715 155.87 42.9458 155.85 42.7054C155.837 42.4695 156.672 40.5202 155.837 40.4312C155.002 40.3422 155.323 41.3702 154.555 42.474C153.787 43.5777 153.373 46.1412 152.959 46.9911C152.532 47.8456 150.583 50.9831 150.429 52.4028C150.282 53.7379 151.878 60.7606 152.058 61.1568C152.252 61.5617 153.42 66.8978 153.266 67.8768C152.999 69.5547 154.522 74.0807 154.675 74.6148C154.835 75.1533 156.371 80.6674 157.092 82.2295C157.726 83.6403 157.499 83.6981 156.812 83.618C156.124 83.5424 154.522 82.8481 152.005 81.4818C149.494 80.12 147.758 77.61 147.097 76.8268C146.436 76.039 144.153 70.3915 144.153 70.3915C144.153 70.3915 143.272 69.3012 143.192 70.8054C143.098 72.3141 144.086 76.6132 145.575 79.2656C147.031 81.8513 150.616 84.0187 151.103 84.3213C151.577 84.6239 157.146 86.6355 159.549 88.745C161.265 90.2492 166.746 92.7904 170.331 94.2368C170.365 94.4326 170.405 94.6284 170.445 94.8109C171.266 98.4068 172.955 100.539 178.864 102.835C185 105.22 188.772 103.618 195.949 105.069C203.14 106.511 201.304 110.401 201.304 110.401C201.304 110.401 201.811 113.044 206.671 112.47C212.634 111.771 210.717 107.25 210.717 107.25C210.711 107.259 207.846 106.422 207.933 105.763L207.934 105.763ZM176.647 97.8683C175.993 97.4366 175.372 96.6221 174.818 95.7321C177.208 96.4664 181.067 97.8772 181.067 97.8772C181.067 97.8772 188.518 100.766 188.171 100.779C182.596 101.006 178.31 98.9453 176.647 97.8683H176.647Z" fill="#F2F2F2"/>
<defs>
<filter id="filter0_d" x="248.546" y="15.3206" width="185.578" height="217.058" filterUnits="userSpaceOnUse" color-interpolation-filters="sRGB">
<feFlood flood-opacity="0" result="BackgroundImageFix"/>
<feColorMatrix in="SourceAlpha" type="matrix" values="0 0 0 0 0 0 0 0 0 0 0 0 0 0 0 0 0 0 127 0" result="hardAlpha"/>
<feOffset dy="-20"/>
<feGaussianBlur stdDeviation="34.5"/>
<feColorMatrix type="matrix" values="0 0 0 0 0.266667 0 0 0 0 1 0 0 0 0 0.956 0 0 0 1 0"/>
<feBlend mode="normal" in2="BackgroundImageFix" result="effect1_dropShadow"/>
<feBlend mode="normal" in="SourceGraphic" in2="effect1_dropShadow" result="shape"/>
</filter>
<filter id="filter1_d" x="2.75049" y="0.98291" width="191.963" height="222.508" filterUnits="userSpaceOnUse" color-interpolation-filters="sRGB">
<feFlood flood-opacity="0" result="BackgroundImageFix"/>
<feColorMatrix in="SourceAlpha" type="matrix" values="0 0 0 0 0 0 0 0 0 0 0 0 0 0 0 0 0 0 127 0" result="hardAlpha"/>
<feOffset dy="-20"/>
<feGaussianBlur stdDeviation="34.5"/>
<feColorMatrix type="matrix" values="0 0 0 0 1 0 0 0 0 0.376 0 0 0 0 0.025 0 0 0 1 0"/>
<feBlend mode="normal" in2="BackgroundImageFix" result="effect1_dropShadow"/>
<feBlend mode="normal" in="SourceGraphic" in2="effect1_dropShadow" result="shape"/>
</filter>
</defs>
</svg>
