<svg width="354" height="221" viewBox="0 0 354 221" fill="none" xmlns="http://www.w3.org/2000/svg">
<g filter="url(#filter0_i)">
<path d="M263.345 221H71.913C53.3426 220.986 35.4976 213.789 22.1137 200.915C8.72979 188.041 0.844732 170.489 0.109217 151.933C-0.626298 133.377 5.84476 115.256 18.1677 101.364C30.4906 87.4711 47.71 78.8839 66.221 77.3999C68.8608 58.7599 77.2781 41.4166 90.2887 27.8099C103.299 14.2032 120.248 5.01792 138.752 1.54632C157.255 -1.92528 176.381 0.491507 193.439 8.45667C210.497 16.4218 224.628 29.5345 233.845 45.9499C250.75 40.098 269.015 39.4142 286.311 43.9859C303.606 48.5576 319.148 58.1775 330.953 71.6186C342.759 85.0596 350.293 101.713 352.594 119.453C354.896 137.194 351.861 155.218 343.877 171.227C339.192 185.69 330.045 198.298 317.749 207.24C305.453 216.182 290.641 220.999 275.437 221H263.345Z" fill="url(#paint0_linear)"/>
<path d="M275.437 220C283.156 220 290.746 218.767 297.996 216.336C305.006 213.985 311.587 210.555 317.557 206.14C323.458 201.776 328.631 196.548 332.932 190.602C337.287 184.582 340.649 177.96 342.925 170.919L342.949 170.847L342.983 170.779C346.01 164.731 348.341 158.333 349.911 151.763C351.526 145.003 352.345 138.017 352.345 130.999C352.345 124.96 351.737 118.925 350.537 113.062C349.368 107.348 347.623 101.728 345.352 96.3572C343.121 91.0838 340.36 85.9975 337.146 81.2396C333.962 76.5267 330.305 72.0949 326.278 68.0672C322.25 64.0395 317.818 60.3828 313.105 57.1988C308.347 53.9845 303.261 51.2237 297.988 48.9932C292.617 46.7216 286.997 44.9769 281.283 43.8077C275.42 42.6079 269.384 41.9995 263.345 41.9995C253.346 41.9995 243.531 43.6451 234.172 46.8907L233.383 47.1645L232.973 46.4361C225.357 32.8942 214.279 21.5216 200.937 13.5478C194.189 9.51523 186.94 6.399 179.391 4.28568C171.602 2.10545 163.512 1 155.345 1C144.361 1 133.638 2.977 123.475 6.87605C113.657 10.6427 104.65 16.0837 96.7052 23.048C88.806 29.9722 82.2507 38.1422 77.2213 47.3308C72.0685 56.7451 68.7006 66.9073 67.2113 77.5349L67.0998 78.3304L66.299 78.3931C57.3408 79.0943 48.7219 81.4529 40.6818 85.4032C32.8694 89.2417 25.8932 94.4335 19.947 100.834C7.72886 113.987 1 131.123 1 149.087C1 158.66 2.87477 167.947 6.57227 176.689C8.34945 180.891 10.5491 184.943 13.1102 188.734C15.6472 192.489 18.5607 196.02 21.7699 199.23C24.9791 202.439 28.5104 205.352 32.2655 207.889C36.0565 210.45 40.109 212.65 44.3106 214.427C53.0525 218.125 62.3391 220 71.9127 220H263.345H275.437ZM275.437 221H263.345H71.9127C32.1966 221 0 188.803 0 149.087C0 111.286 29.1646 80.2967 66.221 77.3961C72.3504 33.6574 109.917 0 155.345 0C189.048 0 218.422 18.5231 233.845 45.9459C243.087 42.7406 253.012 40.9995 263.345 40.9995C313.051 40.9995 353.345 81.2943 353.345 130.999C353.345 145.459 349.936 159.121 343.877 171.227C334.54 200.109 307.427 221 275.437 221Z" fill="white" fill-opacity="0.5"/>
</g>
<defs>
<filter id="filter0_i" x="0" y="0" width="353.345" height="225" filterUnits="userSpaceOnUse" color-interpolation-filters="sRGB">
<feFlood flood-opacity="0" result="BackgroundImageFix"/>
<feBlend mode="normal" in="SourceGraphic" in2="BackgroundImageFix" result="shape"/>
<feColorMatrix in="SourceAlpha" type="matrix" values="0 0 0 0 0 0 0 0 0 0 0 0 0 0 0 0 0 0 127 0" result="hardAlpha"/>
<feOffset dy="4"/>
<feGaussianBlur stdDeviation="2"/>
<feComposite in2="hardAlpha" operator="arithmetic" k2="-1" k3="1"/>
<feColorMatrix type="matrix" values="0 0 0 0 0 0 0 0 0 0 0 0 0 0 0 0 0 0 0.25 0"/>
<feBlend mode="normal" in2="shape" result="effect1_innerShadow"/>
</filter>
<linearGradient id="paint0_linear" x1="176.698" y1="0.00244141" x2="279.341" y2="248.166" gradientUnits="userSpaceOnUse">
<stop stop-color="#BB5555" stop-opacity="0.604"/>
<stop offset="1" stop-color="white" stop-opacity="0.2"/>
</linearGradient>
</defs>
</svg>
